{"accessors" : [{"bufferView" : 0, "byteOffset" : 0, "componentType" : 5123, "count" : 57144, "type" : "SCALAR", "max" : [57143], "min" : [0]}, {"bufferView" : 1, "byteOffset" : 0, "componentType" : 5126, "count" : 57144, "type" : "VEC3", "max" : [2.3532400131225586, 2.3743999004364014, 0.9987220168113708], "min" : [-1.2325999582207304E-34, 1.9303900003433228, -0.8305439949035645]}, {"bufferView" : 1, "byteOffset" : 12, "componentType" : 5126, "count" : 57144, "type" : "VEC3", "max" : [1.0000044107437134, 1.0000044107437134, 1.0000044107437134], "min" : [-1.0000044107437134, -1.0000044107437134, -1.0000044107437134]}], "asset" : {"generator" : "Aspose.3D 20.7.1", "version" : "2.0"}, "buffers" : [{"uri" : "buffer.bin", "byteLength" : 1485752}], "bufferViews" : [{"buffer" : 0, "byteOffset" : 0, "byteLength" : 114288, "target" : 34963}, {"buffer" : 0, "byteOffset" : 114292, "byteLength" : 1371456, "byteStride" : 24, "target" : 34962}], "meshes" : [{"primitives" : [{"attributes" : {"POSITION" : 1, "NORMAL" : 2}, "indices" : 0, "mode" : 4}]}], "nodes" : [{"mesh" : 0, "name" : ""}], "scene" : 0, "scenes" : [{"nodes" : [0]}]}